<?xml version="1.0" standalone="no"?><!DOCTYPE svg PUBLIC "-//W3C//DTD SVG 1.1//EN" "http://www.w3.org/Graphics/SVG/1.1/DTD/svg11.dtd"><svg t="1772704586375" class="icon" viewBox="0 0 1024 1024" version="1.1" xmlns="http://www.w3.org/2000/svg" p-id="6574" xmlns:xlink="http://www.w3.org/1999/xlink" width="200" height="200"><path d="M707.754667 58.538667a32.085333 32.085333 0 0 1 40.277333 4.096l213.333333 213.333333a32.085333 32.085333 0 0 1 0 45.397333l-640 640a32.085333 32.085333 0 0 1-45.397333 0l-213.333333-213.333333a32.085333 32.085333 0 0 1 0-45.397333l640-640 5.12-4.096zM130.56 725.333333L298.666667 893.354667 893.354667 298.666667 725.333333 130.645333 130.645333 725.333333z" p-id="6575" fill="#739BDA"></path><path d="M622.677333 142.677333a32.085333 32.085333 0 0 1 45.312 45.312L187.989333 667.989333a32.085333 32.085333 0 0 1-45.312-45.312l480-480z" p-id="6576" fill="#739BDA"></path><path d="M169.301333 595.968a32.085333 32.085333 0 0 1 45.397334 0l85.333333 85.333333a32.085333 32.085333 0 0 1-45.397333 45.397334l-85.333334-85.333334a32.085333 32.085333 0 0 1 0-45.397333zM275.968 489.301333a32.085333 32.085333 0 0 1 45.397333 0l128 128a32.085333 32.085333 0 0 1-45.397333 45.397334l-128-128a32.085333 32.085333 0 0 1 0-45.397334zM382.634667 382.634667a32.085333 32.085333 0 0 1 45.397333 0l85.333333 85.333333a32.085333 32.085333 0 0 1-45.397333 45.397333l-85.333333-85.333333a32.085333 32.085333 0 0 1 0-45.397333zM489.301333 275.968a32.085333 32.085333 0 0 1 45.397334 0l128 128a32.085333 32.085333 0 0 1-45.397334 45.397333l-128-128a32.085333 32.085333 0 0 1 0-45.397333zM595.968 169.301333a32.085333 32.085333 0 0 1 45.397333 0l85.333334 85.333334a32.085333 32.085333 0 0 1-45.397334 45.397333l-85.333333-85.333333a32.085333 32.085333 0 0 1 0-45.397334z" p-id="6577" fill="#739BDA"></path></svg>