<?xml version="1.0" standalone="no"?><!DOCTYPE svg PUBLIC "-//W3C//DTD SVG 1.1//EN" "http://www.w3.org/Graphics/SVG/1.1/DTD/svg11.dtd"><svg t="1772704570852" class="icon" viewBox="0 0 1024 1024" version="1.1" xmlns="http://www.w3.org/2000/svg" p-id="6352" xmlns:xlink="http://www.w3.org/1999/xlink" width="200" height="200"><path d="M233.301333 105.301333a32.085333 32.085333 0 0 1 45.397334 45.397334l-128 128a32.085333 32.085333 0 0 1-45.397334-45.397334l128-128zM873.301333 745.301333a32.085333 32.085333 0 0 1 45.397334 45.397334l-128 128a32.085333 32.085333 0 0 1-45.397334-45.397334l128-128zM446.634667 105.301333a32.085333 32.085333 0 0 1 45.397333 45.397334l-341.333333 341.333333a32.085333 32.085333 0 0 1-45.397334-45.397333l341.333334-341.333334zM659.968 105.301333a32.085333 32.085333 0 0 1 45.397333 45.397334l-554.666666 554.666666a32.085333 32.085333 0 0 1-45.397334-45.397333l554.666667-554.666667zM873.301333 105.301333a32.085333 32.085333 0 0 1 45.397334 45.397334l-768 768a32.085333 32.085333 0 0 1-45.397334-45.397334l768-768zM873.301333 318.634667a32.085333 32.085333 0 0 1 45.397334 45.397333l-554.666667 554.666667a32.085333 32.085333 0 0 1-45.397333-45.397334l554.666666-554.666666zM873.301333 531.968a32.085333 32.085333 0 0 1 45.397334 45.397333l-341.333334 341.333334a32.085333 32.085333 0 0 1-45.397333-45.397334l341.333333-341.333333z" p-id="6353" fill="#739BDA"></path></svg>