<?xml version="1.0" standalone="no"?><!DOCTYPE svg PUBLIC "-//W3C//DTD SVG 1.1//EN" "http://www.w3.org/Graphics/SVG/1.1/DTD/svg11.dtd"><svg t="1772704506474" class="icon" viewBox="0 0 1024 1024" version="1.1" xmlns="http://www.w3.org/2000/svg" p-id="6127" xmlns:xlink="http://www.w3.org/1999/xlink" width="200" height="200"><path d="M597.333333 94.208c17.664 0 32 14.250667 32 32v138.666667h288c17.664 0 32 14.250667 32 32v170.666666a32 32 0 0 1-32 32h-810.666666a32 32 0 0 1-32-32v-170.666666c0-17.749333 14.336-32 32-32h288V126.208c0-17.749333 14.336-32 32-32h170.666666zM458.666667 296.874667A32 32 0 0 1 426.666667 328.874667H138.666667v106.666666h746.666666v-106.666666H597.333333a32 32 0 0 1-32-32V158.208h-106.666666v138.666667z" p-id="6128" fill="#739BDA"></path><path d="M853.333333 437.333333c17.664 0 32 14.336 32 32V853.333333a32 32 0 0 1-32 32H170.666667A32 32 0 0 1 138.666667 853.333333V469.333333c0-17.664 14.336-32 32-32h682.666666z m-650.666666 384h618.666666v-320h-618.666666v320z" p-id="6129" fill="#739BDA"></path><path d="M309.333333 851.2V723.541333a32 32 0 1 1 64 0v127.658667a32 32 0 0 1-64 0zM480 851.114667v-128a32 32 0 1 1 64 0v128a32 32 0 1 1-64 0zM650.666667 851.2V723.541333a32 32 0 1 1 64 0v127.658667a32 32 0 0 1-64 0z" p-id="6130" fill="#739BDA"></path><path d="M768 821.333333a32 32 0 1 1 0 64H256a32 32 0 0 1 0-64h512z" p-id="6131" fill="#739BDA"></path></svg>